# xmcd
#
# Track frame offsets: 
#        150
#        14113
#        30413
#        50550
#        69575
#        88525
#        104963
#        116413
#        133063
#        146863
#
# Disc length: 2117 seconds
#
# Revision: 1
# Processed by: cddbd v1.5.2PL0 Copyright (c) Steve Scherf et al.
# Submitted via: ExactAudioCopyFreeDBPlugin 1.0
#
DISCID=9608430a
DTITLE=區瑞強 - 區瑞強 10首靚歌 cd1
DYEAR=1970
DGENRE=Acid
TTITLE0=　 伤心的小鹦鹉
TTITLE1=　 渔火闪闪
TTITLE2=　 忘不了的你（国语）
TTITLE3=　容从何处来
TTITLE4=　相对无言
TTITLE5=　 让快乐延续爱
TTITLE6=　是谁沉醉
TTITLE7=　萤火
TTITLE8=　愿一切留住
TTITLE9=　不要离去（晚安歌）
EXTD=
EXTT0=
EXTT1=
EXTT2=
EXTT3=
EXTT4=
EXTT5=
EXTT6=
EXTT7=
EXTT8=
EXTT9=
PLAYORDER=
